<svg width="193" height="35" viewBox="0 0 193 35" fill="none" xmlns="http://www.w3.org/2000/svg">
<path d="M8.5765 9.201H3.5225V12.162H5.3145C5.94917 12.162 6.49283 12.232 6.9455 12.372C7.40283 12.512 7.7785 12.7057 8.0725 12.953C8.3665 13.1957 8.58117 13.485 8.7165 13.821C8.8565 14.157 8.9265 14.5187 8.9265 14.906C8.9265 15.3773 8.84483 15.8043 8.6815 16.187C8.52283 16.565 8.2895 16.8893 7.9815 17.16C7.6735 17.4307 7.29317 17.6383 6.8405 17.783C6.3925 17.9277 5.8815 18 5.3075 18H1.8845V7.92H8.5765V9.201ZM3.5225 13.457V16.705H5.3075C5.67617 16.705 5.9865 16.6653 6.2385 16.586C6.49517 16.502 6.70283 16.3877 6.8615 16.243C7.02017 16.0937 7.1345 15.921 7.2045 15.725C7.27917 15.5243 7.3165 15.3073 7.3165 15.074C7.3165 14.822 7.2815 14.5957 7.2115 14.395C7.1415 14.1943 7.02717 14.0263 6.8685 13.891C6.70983 13.751 6.50217 13.6437 6.2455 13.569C5.9935 13.4943 5.68317 13.457 5.3145 13.457H3.5225ZM13.3435 10.748C13.7822 10.748 14.1882 10.8203 14.5615 10.965C14.9348 11.105 15.2568 11.3127 15.5275 11.588C15.7982 11.8633 16.0082 12.2017 16.1575 12.603C16.3115 12.9997 16.3885 13.4523 16.3885 13.961C16.3885 14.1943 16.3628 14.3507 16.3115 14.43C16.2602 14.5093 16.1668 14.549 16.0315 14.549H11.4465C11.4652 14.955 11.5282 15.3073 11.6355 15.606C11.7428 15.9 11.8852 16.145 12.0625 16.341C12.2445 16.537 12.4592 16.684 12.7065 16.782C12.9585 16.8753 13.2385 16.922 13.5465 16.922C13.8405 16.922 14.0948 16.8893 14.3095 16.824C14.5242 16.754 14.7108 16.6793 14.8695 16.6C15.0282 16.516 15.1635 16.4413 15.2755 16.376C15.3875 16.306 15.4902 16.271 15.5835 16.271C15.7048 16.271 15.7982 16.3177 15.8635 16.411L16.2905 16.964C16.1132 17.174 15.9125 17.3513 15.6885 17.496C15.4645 17.6407 15.2265 17.7597 14.9745 17.853C14.7225 17.9417 14.4635 18.0047 14.1975 18.042C13.9315 18.084 13.6725 18.105 13.4205 18.105C12.9258 18.105 12.4662 18.0233 12.0415 17.86C11.6215 17.692 11.2552 17.447 10.9425 17.125C10.6345 16.803 10.3918 16.404 10.2145 15.928C10.0418 15.452 9.9555 14.9037 9.9555 14.283C9.9555 13.7883 10.0325 13.3263 10.1865 12.897C10.3452 12.4677 10.5692 12.0943 10.8585 11.777C11.1525 11.4597 11.5072 11.21 11.9225 11.028C12.3425 10.8413 12.8162 10.748 13.3435 10.748ZM13.3715 11.84C12.8255 11.84 12.3962 11.9963 12.0835 12.309C11.7708 12.6217 11.5725 13.0603 11.4885 13.625H15.0375C15.0375 13.373 15.0002 13.1397 14.9255 12.925C14.8555 12.7057 14.7505 12.5167 14.6105 12.358C14.4705 12.1947 14.2955 12.0687 14.0855 11.98C13.8802 11.8867 13.6422 11.84 13.3715 11.84ZM17.358 11.616C17.6287 11.3593 17.96 11.1517 18.352 10.993C18.744 10.8297 19.213 10.748 19.759 10.748C20.1977 10.748 20.585 10.8017 20.921 10.909C21.257 11.0117 21.5393 11.1517 21.768 11.329C21.9967 11.5017 22.1693 11.7023 22.286 11.931C22.4073 12.1597 22.468 12.3977 22.468 12.645C22.468 12.785 22.447 12.9297 22.405 13.079C22.363 13.2237 22.293 13.366 22.195 13.506C22.1017 13.646 21.9757 13.7767 21.817 13.898C21.663 14.0193 21.4717 14.1197 21.243 14.199C21.6677 14.339 22.0037 14.556 22.251 14.85C22.4983 15.144 22.622 15.5057 22.622 15.935C22.622 16.2757 22.5427 16.5813 22.384 16.852C22.23 17.118 22.0223 17.3443 21.761 17.531C21.5043 17.7177 21.2057 17.86 20.865 17.958C20.529 18.056 20.179 18.105 19.815 18.105C19.5957 18.105 19.367 18.084 19.129 18.042C18.8957 18.0047 18.6623 17.9417 18.429 17.853C18.2003 17.7597 17.9787 17.6407 17.764 17.496C17.5493 17.3513 17.3557 17.174 17.183 16.964L17.617 16.411C17.673 16.3177 17.7663 16.271 17.897 16.271C17.9903 16.271 18.086 16.306 18.184 16.376C18.282 16.446 18.3963 16.523 18.527 16.607C18.6623 16.691 18.8233 16.768 19.01 16.838C19.2013 16.908 19.437 16.943 19.717 16.943C19.9503 16.943 20.158 16.915 20.34 16.859C20.522 16.803 20.676 16.7237 20.802 16.621C20.928 16.5183 21.0237 16.3993 21.089 16.264C21.1543 16.124 21.187 15.9723 21.187 15.809C21.187 15.4917 21.0563 15.242 20.795 15.06C20.5383 14.8733 20.1323 14.78 19.577 14.78H18.772V13.786H19.577C20.0623 13.786 20.438 13.6973 20.704 13.52C20.97 13.3427 21.103 13.1117 21.103 12.827C21.103 12.5703 20.9863 12.3533 20.753 12.176C20.5243 11.9987 20.179 11.91 19.717 11.91C19.4557 11.91 19.2317 11.938 19.045 11.994C18.863 12.0453 18.709 12.1037 18.583 12.169C18.457 12.2297 18.3497 12.2857 18.261 12.337C18.177 12.3883 18.1023 12.414 18.037 12.414C17.967 12.414 17.9063 12.4 17.855 12.372C17.8083 12.344 17.757 12.2857 17.701 12.197L17.358 11.616ZM27.1681 10.748C27.6954 10.748 28.1714 10.8343 28.5961 11.007C29.0254 11.1797 29.3894 11.4247 29.6881 11.742C29.9914 12.0593 30.2247 12.4443 30.3881 12.897C30.5514 13.3497 30.6331 13.8583 30.6331 14.423C30.6331 14.9877 30.5514 15.4963 30.3881 15.949C30.2247 16.4017 29.9914 16.789 29.6881 17.111C29.3894 17.4283 29.0254 17.6733 28.5961 17.846C28.1714 18.0187 27.6954 18.105 27.1681 18.105C26.6361 18.105 26.1554 18.0187 25.7261 17.846C25.3014 17.6733 24.9374 17.4283 24.6341 17.111C24.3307 16.789 24.0974 16.4017 23.9341 15.949C23.7707 15.4963 23.6891 14.9877 23.6891 14.423C23.6891 13.8583 23.7707 13.3497 23.9341 12.897C24.0974 12.4443 24.3307 12.0593 24.6341 11.742C24.9374 11.4247 25.3014 11.1797 25.7261 11.007C26.1554 10.8343 26.6361 10.748 27.1681 10.748ZM27.1681 16.929C27.8121 16.929 28.2904 16.7143 28.6031 16.285C28.9204 15.851 29.0791 15.2327 29.0791 14.43C29.0791 13.6273 28.9204 13.009 28.6031 12.575C28.2904 12.1363 27.8121 11.917 27.1681 11.917C26.5147 11.917 26.0294 12.1363 25.7121 12.575C25.3947 13.009 25.2361 13.6273 25.2361 14.43C25.2361 15.2327 25.3947 15.851 25.7121 16.285C26.0294 16.7143 26.5147 16.929 27.1681 16.929ZM38.1691 10.86V18H36.6711V11.994H33.5841V18H32.0791V10.86H38.1691ZM44.6148 18C44.4701 18 44.3605 17.979 44.2858 17.937C44.2111 17.8903 44.1481 17.7993 44.0968 17.664L43.9498 17.083C43.7678 17.251 43.5881 17.398 43.4108 17.524C43.2335 17.65 43.0491 17.7573 42.8578 17.846C42.6711 17.9347 42.4681 18 42.2488 18.042C42.0341 18.0887 41.7961 18.112 41.5348 18.112C41.2455 18.112 40.9748 18.0723 40.7228 17.993C40.4755 17.9137 40.2608 17.7947 40.0788 17.636C39.8968 17.4727 39.7521 17.272 39.6448 17.034C39.5421 16.796 39.4908 16.516 39.4908 16.194C39.4908 15.9187 39.5631 15.6503 39.7078 15.389C39.8571 15.1277 40.0998 14.8943 40.4358 14.689C40.7765 14.479 41.2221 14.3063 41.7728 14.171C42.3281 14.0357 43.0118 13.9587 43.8238 13.94V13.464C43.8238 12.9507 43.7141 12.568 43.4948 12.316C43.2755 12.064 42.9535 11.938 42.5288 11.938C42.2395 11.938 41.9968 11.9753 41.8008 12.05C41.6048 12.12 41.4345 12.197 41.2898 12.281C41.1451 12.365 41.0168 12.4443 40.9048 12.519C40.7928 12.589 40.6738 12.624 40.5478 12.624C40.4451 12.624 40.3565 12.5983 40.2818 12.547C40.2118 12.491 40.1535 12.4233 40.1068 12.344L39.8338 11.854C40.6411 11.1027 41.6025 10.727 42.7178 10.727C43.1285 10.727 43.4925 10.7947 43.8098 10.93C44.1318 11.0607 44.4001 11.2473 44.6148 11.49C44.8341 11.7327 44.9998 12.022 45.1118 12.358C45.2285 12.6893 45.2868 13.058 45.2868 13.464V18H44.6148ZM41.9898 17.062C42.3818 17.062 42.7178 16.9897 42.9978 16.845C43.2825 16.6957 43.5578 16.4833 43.8238 16.208V14.878C43.2871 14.9013 42.8345 14.9457 42.4658 15.011C42.0971 15.0763 41.7985 15.1627 41.5698 15.27C41.3411 15.3773 41.1755 15.5033 41.0728 15.648C40.9748 15.788 40.9258 15.9443 40.9258 16.117C40.9258 16.285 40.9515 16.4297 41.0028 16.551C41.0588 16.6677 41.1335 16.7657 41.2268 16.845C41.3248 16.9197 41.4368 16.9757 41.5628 17.013C41.6935 17.0457 41.8358 17.062 41.9898 17.062ZM52.0968 12.26C52.0501 12.3207 52.0058 12.3673 51.9638 12.4C51.9218 12.4327 51.8611 12.449 51.7818 12.449C51.7025 12.449 51.6185 12.421 51.5298 12.365C51.4458 12.309 51.3431 12.2483 51.2218 12.183C51.1051 12.113 50.9628 12.05 50.7948 11.994C50.6268 11.938 50.4168 11.91 50.1648 11.91C49.8381 11.91 49.5511 11.9683 49.3038 12.085C49.0611 12.2017 48.8558 12.3697 48.6878 12.589C48.5245 12.8037 48.4008 13.0673 48.3168 13.38C48.2375 13.688 48.1978 14.0357 48.1978 14.423C48.1978 14.8243 48.2421 15.1813 48.3308 15.494C48.4195 15.8067 48.5455 16.0703 48.7088 16.285C48.8768 16.4997 49.0775 16.663 49.3108 16.775C49.5488 16.887 49.8148 16.943 50.1088 16.943C50.3981 16.943 50.6338 16.908 50.8158 16.838C50.9978 16.768 51.1495 16.691 51.2708 16.607C51.3921 16.523 51.4948 16.446 51.5788 16.376C51.6675 16.306 51.7608 16.271 51.8588 16.271C51.9801 16.271 52.0735 16.3177 52.1388 16.411L52.5658 16.964C52.3931 17.174 52.2018 17.3513 51.9918 17.496C51.7818 17.6407 51.5601 17.7597 51.3268 17.853C51.0935 17.9417 50.8508 18.0047 50.5988 18.042C50.3468 18.084 50.0925 18.105 49.8358 18.105C49.3925 18.105 48.9771 18.0233 48.5898 17.86C48.2071 17.692 47.8711 17.4517 47.5818 17.139C47.2971 16.8217 47.0708 16.4367 46.9028 15.984C46.7395 15.5267 46.6578 15.0063 46.6578 14.423C46.6578 13.8957 46.7325 13.408 46.8818 12.96C47.0311 12.5073 47.2481 12.1177 47.5328 11.791C47.8221 11.4643 48.1791 11.21 48.6038 11.028C49.0285 10.8413 49.5185 10.748 50.0738 10.748C50.5918 10.748 51.0468 10.832 51.4388 11C51.8355 11.168 52.1878 11.406 52.4958 11.714L52.0968 12.26ZM59.8664 10.86V18H58.3684V14.759H55.2814V18H53.7764V10.86H55.2814V13.625H58.3684V10.86H59.8664ZM63.1341 10.86V13.576H64.5201C65.0147 13.576 65.4324 13.6367 65.7731 13.758C66.1137 13.8747 66.3891 14.0333 66.5991 14.234C66.8091 14.4347 66.9607 14.668 67.0541 14.934C67.1474 15.1953 67.1941 15.4683 67.1941 15.753C67.1941 16.0843 67.1357 16.3877 67.0191 16.663C66.9024 16.9337 66.7297 17.1693 66.5011 17.37C66.2771 17.5707 65.9994 17.727 65.6681 17.839C65.3414 17.9463 64.9657 18 64.5411 18H61.7061V10.86H63.1341ZM70.1201 10.86V18H68.6151V10.86H70.1201ZM63.1341 14.661V16.908H64.5411C64.7604 16.908 64.9517 16.88 65.1151 16.824C65.2831 16.7633 65.4207 16.684 65.5281 16.586C65.6401 16.4833 65.7217 16.362 65.7731 16.222C65.8291 16.082 65.8571 15.928 65.8571 15.76C65.8571 15.6107 65.8314 15.4707 65.7801 15.34C65.7334 15.2047 65.6564 15.088 65.5491 14.99C65.4464 14.8873 65.3111 14.808 65.1431 14.752C64.9751 14.6913 64.7697 14.661 64.5271 14.661H63.1341ZM74.949 10.748C75.3876 10.748 75.7936 10.8203 76.167 10.965C76.5403 11.105 76.8623 11.3127 77.133 11.588C77.4036 11.8633 77.6136 12.2017 77.763 12.603C77.917 12.9997 77.994 13.4523 77.994 13.961C77.994 14.1943 77.9683 14.3507 77.917 14.43C77.8656 14.5093 77.7723 14.549 77.637 14.549H73.052C73.0706 14.955 73.1336 15.3073 73.241 15.606C73.3483 15.9 73.4906 16.145 73.668 16.341C73.85 16.537 74.0646 16.684 74.312 16.782C74.564 16.8753 74.844 16.922 75.152 16.922C75.446 16.922 75.7003 16.8893 75.915 16.824C76.1296 16.754 76.3163 16.6793 76.475 16.6C76.6336 16.516 76.769 16.4413 76.881 16.376C76.993 16.306 77.0956 16.271 77.189 16.271C77.3103 16.271 77.4036 16.3177 77.469 16.411L77.896 16.964C77.7186 17.174 77.518 17.3513 77.294 17.496C77.07 17.6407 76.832 17.7597 76.58 17.853C76.328 17.9417 76.069 18.0047 75.803 18.042C75.537 18.084 75.278 18.105 75.026 18.105C74.5313 18.105 74.0716 18.0233 73.647 17.86C73.227 17.692 72.8606 17.447 72.548 17.125C72.24 16.803 71.9973 16.404 71.82 15.928C71.6473 15.452 71.561 14.9037 71.561 14.283C71.561 13.7883 71.638 13.3263 71.792 12.897C71.9506 12.4677 72.1746 12.0943 72.464 11.777C72.758 11.4597 73.1126 11.21 73.528 11.028C73.948 10.8413 74.4216 10.748 74.949 10.748ZM74.977 11.84C74.431 11.84 74.0016 11.9963 73.689 12.309C73.3763 12.6217 73.178 13.0603 73.094 13.625H76.643C76.643 13.373 76.6056 13.1397 76.531 12.925C76.461 12.7057 76.356 12.5167 76.216 12.358C76.076 12.1947 75.901 12.0687 75.691 11.98C75.4856 11.8867 75.2476 11.84 74.977 11.84ZM89.3378 10.86V18H87.8328V12.029H85.8448C85.7888 12.9203 85.7025 13.6903 85.5858 14.339C85.4738 14.983 85.3385 15.529 85.1798 15.977C85.0211 16.425 84.8438 16.789 84.6478 17.069C84.4518 17.3443 84.2441 17.559 84.0248 17.713C83.8055 17.867 83.5791 17.9697 83.3458 18.021C83.1171 18.0723 82.8861 18.098 82.6528 18.098C82.2001 18.098 81.9738 18.0233 81.9738 17.874V16.929H82.3658C82.5198 16.929 82.6761 16.9033 82.8348 16.852C82.9981 16.8007 83.1545 16.7003 83.3038 16.551C83.4531 16.397 83.5955 16.1823 83.7308 15.907C83.8708 15.6317 83.9968 15.27 84.1088 14.822C84.2255 14.3693 84.3258 13.821 84.4098 13.177C84.4938 12.5283 84.5591 11.756 84.6058 10.86H89.3378ZM95.775 18C95.6303 18 95.5206 17.979 95.446 17.937C95.3713 17.8903 95.3083 17.7993 95.257 17.664L95.11 17.083C94.928 17.251 94.7483 17.398 94.571 17.524C94.3936 17.65 94.2093 17.7573 94.018 17.846C93.8313 17.9347 93.6283 18 93.409 18.042C93.1943 18.0887 92.9563 18.112 92.695 18.112C92.4056 18.112 92.135 18.0723 91.883 17.993C91.6356 17.9137 91.421 17.7947 91.239 17.636C91.057 17.4727 90.9123 17.272 90.805 17.034C90.7023 16.796 90.651 16.516 90.651 16.194C90.651 15.9187 90.7233 15.6503 90.868 15.389C91.0173 15.1277 91.26 14.8943 91.596 14.689C91.9366 14.479 92.3823 14.3063 92.933 14.171C93.4883 14.0357 94.172 13.9587 94.984 13.94V13.464C94.984 12.9507 94.8743 12.568 94.655 12.316C94.4356 12.064 94.1136 11.938 93.689 11.938C93.3996 11.938 93.157 11.9753 92.961 12.05C92.765 12.12 92.5946 12.197 92.45 12.281C92.3053 12.365 92.177 12.4443 92.065 12.519C91.953 12.589 91.834 12.624 91.708 12.624C91.6053 12.624 91.5166 12.5983 91.442 12.547C91.372 12.491 91.3136 12.4233 91.267 12.344L90.994 11.854C91.8013 11.1027 92.7626 10.727 93.878 10.727C94.2886 10.727 94.6526 10.7947 94.97 10.93C95.292 11.0607 95.5603 11.2473 95.775 11.49C95.9943 11.7327 96.16 12.022 96.272 12.358C96.3886 12.6893 96.447 13.058 96.447 13.464V18H95.775ZM93.15 17.062C93.542 17.062 93.878 16.9897 94.158 16.845C94.4426 16.6957 94.718 16.4833 94.984 16.208V14.878C94.4473 14.9013 93.9946 14.9457 93.626 15.011C93.2573 15.0763 92.9586 15.1627 92.73 15.27C92.5013 15.3773 92.3356 15.5033 92.233 15.648C92.135 15.788 92.086 15.9443 92.086 16.117C92.086 16.285 92.1116 16.4297 92.163 16.551C92.219 16.6677 92.2936 16.7657 92.387 16.845C92.485 16.9197 92.597 16.9757 92.723 17.013C92.8536 17.0457 92.996 17.062 93.15 17.062ZM102.508 11.266C102.583 11.1447 102.683 11.0467 102.809 10.972C102.94 10.8973 103.075 10.86 103.215 10.86H104.391L102.634 13.541C102.522 13.723 102.405 13.87 102.284 13.982C102.163 14.094 102.013 14.1803 101.836 14.241C102.065 14.3063 102.254 14.4067 102.403 14.542C102.557 14.6727 102.695 14.843 102.816 15.053L104.587 18H103.551C103.285 18 103.077 17.9557 102.928 17.867C102.783 17.7783 102.66 17.6477 102.557 17.475L101.346 15.389C101.248 15.2117 101.12 15.081 100.961 14.997C100.802 14.913 100.623 14.871 100.422 14.871H99.715V18.007H98.21V10.86H99.715V13.863H100.324C100.52 13.863 100.683 13.8257 100.814 13.751C100.945 13.6763 101.057 13.562 101.15 13.408L102.508 11.266ZM108.461 10.748C108.988 10.748 109.464 10.8343 109.889 11.007C110.318 11.1797 110.682 11.4247 110.981 11.742C111.284 12.0593 111.518 12.4443 111.681 12.897C111.844 13.3497 111.926 13.8583 111.926 14.423C111.926 14.9877 111.844 15.4963 111.681 15.949C111.518 16.4017 111.284 16.789 110.981 17.111C110.682 17.4283 110.318 17.6733 109.889 17.846C109.464 18.0187 108.988 18.105 108.461 18.105C107.929 18.105 107.448 18.0187 107.019 17.846C106.594 17.6733 106.23 17.4283 105.927 17.111C105.624 16.789 105.39 16.4017 105.227 15.949C105.064 15.4963 104.982 14.9877 104.982 14.423C104.982 13.8583 105.064 13.3497 105.227 12.897C105.39 12.4443 105.624 12.0593 105.927 11.742C106.23 11.4247 106.594 11.1797 107.019 11.007C107.448 10.8343 107.929 10.748 108.461 10.748ZM108.461 16.929C109.105 16.929 109.583 16.7143 109.896 16.285C110.213 15.851 110.372 15.2327 110.372 14.43C110.372 13.6273 110.213 13.009 109.896 12.575C109.583 12.1363 109.105 11.917 108.461 11.917C107.808 11.917 107.322 12.1363 107.005 12.575C106.688 13.009 106.529 13.6273 106.529 14.43C106.529 15.2327 106.688 15.851 107.005 16.285C107.322 16.7143 107.808 16.929 108.461 16.929ZM117.11 14.5C117.175 14.6213 117.234 14.752 117.285 14.892C117.341 15.032 117.395 15.172 117.446 15.312C117.497 15.172 117.551 15.032 117.607 14.892C117.663 14.752 117.724 14.6213 117.789 14.5L119.7 11.182C119.77 11.042 119.856 10.951 119.959 10.909C120.062 10.8623 120.164 10.839 120.267 10.839H121.492V18H120.141V13.681C120.141 13.5317 120.15 13.3637 120.169 13.177C120.188 12.9857 120.211 12.8083 120.239 12.645L117.964 16.733C117.917 16.817 117.857 16.8847 117.782 16.936C117.707 16.9827 117.623 17.006 117.53 17.006H117.369C117.276 17.006 117.192 16.9827 117.117 16.936C117.047 16.8847 116.989 16.817 116.942 16.733L114.625 12.631C114.653 12.7943 114.676 12.974 114.695 13.17C114.718 13.3613 114.73 13.5317 114.73 13.681V18H113.372V10.839H114.604C114.707 10.839 114.807 10.8623 114.905 10.909C115.008 10.9557 115.096 11.0467 115.171 11.182L117.11 14.5ZM128.386 12.26C128.339 12.3207 128.295 12.3673 128.253 12.4C128.211 12.4327 128.15 12.449 128.071 12.449C127.992 12.449 127.908 12.421 127.819 12.365C127.735 12.309 127.632 12.2483 127.511 12.183C127.394 12.113 127.252 12.05 127.084 11.994C126.916 11.938 126.706 11.91 126.454 11.91C126.127 11.91 125.84 11.9683 125.593 12.085C125.35 12.2017 125.145 12.3697 124.977 12.589C124.814 12.8037 124.69 13.0673 124.606 13.38C124.527 13.688 124.487 14.0357 124.487 14.423C124.487 14.8243 124.531 15.1813 124.62 15.494C124.709 15.8067 124.835 16.0703 124.998 16.285C125.166 16.4997 125.367 16.663 125.6 16.775C125.838 16.887 126.104 16.943 126.398 16.943C126.687 16.943 126.923 16.908 127.105 16.838C127.287 16.768 127.439 16.691 127.56 16.607C127.681 16.523 127.784 16.446 127.868 16.376C127.957 16.306 128.05 16.271 128.148 16.271C128.269 16.271 128.363 16.3177 128.428 16.411L128.855 16.964C128.682 17.174 128.491 17.3513 128.281 17.496C128.071 17.6407 127.849 17.7597 127.616 17.853C127.383 17.9417 127.14 18.0047 126.888 18.042C126.636 18.084 126.382 18.105 126.125 18.105C125.682 18.105 125.266 18.0233 124.879 17.86C124.496 17.692 124.16 17.4517 123.871 17.139C123.586 16.8217 123.36 16.4367 123.192 15.984C123.029 15.5267 122.947 15.0063 122.947 14.423C122.947 13.8957 123.022 13.408 123.171 12.96C123.32 12.5073 123.537 12.1177 123.822 11.791C124.111 11.4643 124.468 11.21 124.893 11.028C125.318 10.8413 125.808 10.748 126.363 10.748C126.881 10.748 127.336 10.832 127.728 11C128.125 11.168 128.477 11.406 128.785 11.714L128.386 12.26ZM129.323 10.86H136.099V11.994H133.467V18H131.962V11.994H129.323V10.86ZM137.202 10.86H139.925C140.368 10.86 140.751 10.9043 141.073 10.993C141.395 11.077 141.659 11.196 141.864 11.35C142.074 11.504 142.228 11.686 142.326 11.896C142.424 12.106 142.473 12.3323 142.473 12.575C142.473 12.729 142.452 12.89 142.41 13.058C142.368 13.226 142.296 13.387 142.193 13.541C142.09 13.6903 141.95 13.828 141.773 13.954C141.6 14.08 141.379 14.178 141.108 14.248C141.612 14.3413 142.013 14.528 142.312 14.808C142.611 15.088 142.76 15.4567 142.76 15.914C142.76 16.2687 142.688 16.5767 142.543 16.838C142.398 17.0993 142.2 17.3163 141.948 17.489C141.701 17.6617 141.411 17.79 141.08 17.874C140.753 17.958 140.408 18 140.044 18H137.202V10.86ZM138.637 14.836V16.957H140.037C140.448 16.957 140.772 16.859 141.01 16.663C141.253 16.4623 141.374 16.194 141.374 15.858C141.374 15.7133 141.353 15.578 141.311 15.452C141.269 15.326 141.197 15.2187 141.094 15.13C140.991 15.0367 140.854 14.9643 140.681 14.913C140.513 14.8617 140.301 14.836 140.044 14.836H138.637ZM138.637 13.891H139.876C140.063 13.891 140.233 13.8653 140.387 13.814C140.546 13.758 140.681 13.6833 140.793 13.59C140.91 13.492 140.998 13.3777 141.059 13.247C141.124 13.1117 141.157 12.9623 141.157 12.799C141.157 12.6823 141.136 12.568 141.094 12.456C141.052 12.3393 140.98 12.2367 140.877 12.148C140.779 12.0593 140.648 11.9893 140.485 11.938C140.322 11.882 140.119 11.854 139.876 11.854H138.637V13.891ZM148.794 18C148.65 18 148.54 17.979 148.465 17.937C148.391 17.8903 148.328 17.7993 148.276 17.664L148.129 17.083C147.947 17.251 147.768 17.398 147.59 17.524C147.413 17.65 147.229 17.7573 147.037 17.846C146.851 17.9347 146.648 18 146.428 18.042C146.214 18.0887 145.976 18.112 145.714 18.112C145.425 18.112 145.154 18.0723 144.902 17.993C144.655 17.9137 144.44 17.7947 144.258 17.636C144.076 17.4727 143.932 17.272 143.824 17.034C143.722 16.796 143.67 16.516 143.67 16.194C143.67 15.9187 143.743 15.6503 143.887 15.389C144.037 15.1277 144.279 14.8943 144.615 14.689C144.956 14.479 145.402 14.3063 145.952 14.171C146.508 14.0357 147.191 13.9587 148.003 13.94V13.464C148.003 12.9507 147.894 12.568 147.674 12.316C147.455 12.064 147.133 11.938 146.708 11.938C146.419 11.938 146.176 11.9753 145.98 12.05C145.784 12.12 145.614 12.197 145.469 12.281C145.325 12.365 145.196 12.4443 145.084 12.519C144.972 12.589 144.853 12.624 144.727 12.624C144.625 12.624 144.536 12.5983 144.461 12.547C144.391 12.491 144.333 12.4233 144.286 12.344L144.013 11.854C144.821 11.1027 145.782 10.727 146.897 10.727C147.308 10.727 147.672 10.7947 147.989 10.93C148.311 11.0607 148.58 11.2473 148.794 11.49C149.014 11.7327 149.179 12.022 149.291 12.358C149.408 12.6893 149.466 13.058 149.466 13.464V18H148.794ZM146.169 17.062C146.561 17.062 146.897 16.9897 147.177 16.845C147.462 16.6957 147.737 16.4833 148.003 16.208V14.878C147.467 14.9013 147.014 14.9457 146.645 15.011C146.277 15.0763 145.978 15.1627 145.749 15.27C145.521 15.3773 145.355 15.5033 145.252 15.648C145.154 15.788 145.105 15.9443 145.105 16.117C145.105 16.285 145.131 16.4297 145.182 16.551C145.238 16.6677 145.313 16.7657 145.406 16.845C145.504 16.9197 145.616 16.9757 145.742 17.013C145.873 17.0457 146.015 17.062 146.169 17.062Z" fill="#BFBFBF"/>
<circle opacity="0.53" cx="178.661" cy="14.2851" r="13.7851" stroke="#27AE60"/>
<circle opacity="0.53" cx="178.66" cy="14.2851" r="8.79084" fill="#27AE60"/>
</svg>
