<svg width="161" height="29" viewBox="0 0 161 29" fill="none" xmlns="http://www.w3.org/2000/svg">
<path d="M14.4176 7.92V16.719H16.0206V19.946C16.0206 20.086 15.9716 20.2003 15.8736 20.289C15.7802 20.3777 15.6566 20.422 15.5026 20.422H14.5226V18H6.78057V19.946C6.78057 20.086 6.73157 20.2003 6.63357 20.289C6.54024 20.3777 6.41657 20.422 6.26257 20.422H5.28257V16.719H6.34657C6.4819 16.649 6.61724 16.537 6.75257 16.383C6.89257 16.229 7.02557 16.012 7.15157 15.732C7.27757 15.4473 7.39657 15.088 7.50857 14.654C7.62524 14.2153 7.73024 13.6833 7.82357 13.058C7.9169 12.428 7.99624 11.6907 8.06157 10.846C8.1269 10.0013 8.1759 9.026 8.20857 7.92H14.4176ZM9.74857 9.201C9.69257 10.2603 9.61557 11.196 9.51757 12.008C9.41957 12.8153 9.3029 13.5223 9.16757 14.129C9.0369 14.731 8.8899 15.2443 8.72657 15.669C8.5679 16.089 8.39524 16.439 8.20857 16.719H12.7726V9.201H9.74857ZM23.7255 10.86V18H22.2205V12.029H20.2325C20.1765 12.9203 20.0902 13.6903 19.9735 14.339C19.8615 14.983 19.7262 15.529 19.5675 15.977C19.4088 16.425 19.2315 16.789 19.0355 17.069C18.8395 17.3443 18.6318 17.559 18.4125 17.713C18.1932 17.867 17.9668 17.9697 17.7335 18.021C17.5048 18.0723 17.2738 18.098 17.0405 18.098C16.5878 18.098 16.3615 18.0233 16.3615 17.874V16.929H16.7535C16.9075 16.929 17.0638 16.9033 17.2225 16.852C17.3858 16.8007 17.5422 16.7003 17.6915 16.551C17.8408 16.397 17.9832 16.1823 18.1185 15.907C18.2585 15.6317 18.3845 15.27 18.4965 14.822C18.6132 14.3693 18.7135 13.821 18.7975 13.177C18.8815 12.5283 18.9468 11.756 18.9935 10.86H23.7255ZM30.7296 18H29.2946V15.074H28.8816C28.7463 15.074 28.6343 15.0857 28.5456 15.109C28.457 15.1323 28.38 15.165 28.3146 15.207C28.254 15.249 28.198 15.3003 28.1466 15.361C28.1 15.4217 28.0533 15.4893 28.0066 15.564L26.6696 17.475C26.5716 17.6523 26.455 17.7853 26.3196 17.874C26.189 17.958 25.9906 18 25.7246 18H24.6886L26.6136 15.403C26.791 15.095 27.0383 14.885 27.3556 14.773C27.0103 14.7217 26.7163 14.633 26.4736 14.507C26.231 14.381 26.035 14.234 25.8856 14.066C25.7363 13.898 25.6266 13.716 25.5566 13.52C25.4913 13.3193 25.4586 13.121 25.4586 12.925C25.4586 12.6683 25.5076 12.4163 25.6056 12.169C25.7083 11.9217 25.8693 11.7023 26.0886 11.511C26.308 11.315 26.5903 11.1587 26.9356 11.042C27.2856 10.9207 27.7056 10.86 28.1956 10.86H30.7296V18ZM26.9636 12.995C26.9636 13.345 27.0873 13.6203 27.3346 13.821C27.5866 14.0217 27.925 14.122 28.3496 14.122H29.2946V11.854H28.2376C27.995 11.854 27.792 11.889 27.6286 11.959C27.4653 12.029 27.3346 12.12 27.2366 12.232C27.1386 12.3393 27.0686 12.4607 27.0266 12.596C26.9846 12.7313 26.9636 12.8643 26.9636 12.995ZM39.8436 9.397C39.3863 9.42967 38.9943 9.52533 38.6676 9.684C38.3456 9.838 38.0773 10.0457 37.8626 10.307C37.6526 10.5683 37.4916 10.881 37.3796 11.245C37.2723 11.609 37.2093 12.015 37.1906 12.463C37.3073 12.2623 37.452 12.0803 37.6246 11.917C37.7973 11.749 37.9933 11.6067 38.2126 11.49C38.432 11.3733 38.6723 11.2823 38.9336 11.217C39.195 11.1517 39.4726 11.119 39.7666 11.119C40.2426 11.119 40.6696 11.203 41.0476 11.371C41.4256 11.539 41.7453 11.7747 42.0066 12.078C42.2726 12.3813 42.4756 12.7477 42.6156 13.177C42.7603 13.6063 42.8326 14.0823 42.8326 14.605C42.8326 15.137 42.7486 15.62 42.5806 16.054C42.4173 16.4833 42.184 16.852 41.8806 17.16C41.5773 17.4633 41.211 17.6967 40.7816 17.86C40.3523 18.0233 39.874 18.105 39.3466 18.105C38.8473 18.105 38.3853 18.0233 37.9606 17.86C37.536 17.692 37.1673 17.4237 36.8546 17.055C36.542 16.6817 36.297 16.194 36.1196 15.592C35.947 14.99 35.8606 14.2527 35.8606 13.38C35.8606 12.6427 35.9283 11.9613 36.0636 11.336C36.199 10.7107 36.4183 10.1647 36.7216 9.698C37.025 9.22667 37.4216 8.84867 37.9116 8.564C38.4063 8.27467 39.0083 8.102 39.7176 8.046L42.2586 7.836L42.3426 8.62C42.3613 8.79267 42.3356 8.93733 42.2656 9.054C42.2003 9.17067 42.0836 9.23367 41.9156 9.243L39.8436 9.397ZM39.3466 16.992C39.9953 16.992 40.4806 16.789 40.8026 16.383C41.1246 15.9723 41.2856 15.382 41.2856 14.612C41.2856 13.8513 41.1293 13.2657 40.8166 12.855C40.504 12.4397 40.0303 12.232 39.3956 12.232C38.7703 12.232 38.285 12.4233 37.9396 12.806C37.599 13.1887 37.4286 13.7487 37.4286 14.486C37.4286 15.2887 37.5873 15.907 37.9046 16.341C38.2266 16.775 38.7073 16.992 39.3466 16.992ZM47.2761 10.748C47.7148 10.748 48.1208 10.8203 48.4941 10.965C48.8675 11.105 49.1895 11.3127 49.4601 11.588C49.7308 11.8633 49.9408 12.2017 50.0901 12.603C50.2441 12.9997 50.3211 13.4523 50.3211 13.961C50.3211 14.1943 50.2955 14.3507 50.2441 14.43C50.1928 14.5093 50.0995 14.549 49.9641 14.549H45.3791C45.3978 14.955 45.4608 15.3073 45.5681 15.606C45.6755 15.9 45.8178 16.145 45.9951 16.341C46.1771 16.537 46.3918 16.684 46.6391 16.782C46.8911 16.8753 47.1711 16.922 47.4791 16.922C47.7731 16.922 48.0275 16.8893 48.2421 16.824C48.4568 16.754 48.6435 16.6793 48.8021 16.6C48.9608 16.516 49.0961 16.4413 49.2081 16.376C49.3201 16.306 49.4228 16.271 49.5161 16.271C49.6375 16.271 49.7308 16.3177 49.7961 16.411L50.2231 16.964C50.0458 17.174 49.8451 17.3513 49.6211 17.496C49.3971 17.6407 49.1591 17.7597 48.9071 17.853C48.6551 17.9417 48.3961 18.0047 48.1301 18.042C47.8641 18.084 47.6051 18.105 47.3531 18.105C46.8585 18.105 46.3988 18.0233 45.9741 17.86C45.5541 17.692 45.1878 17.447 44.8751 17.125C44.5671 16.803 44.3245 16.404 44.1471 15.928C43.9745 15.452 43.8881 14.9037 43.8881 14.283C43.8881 13.7883 43.9651 13.3263 44.1191 12.897C44.2778 12.4677 44.5018 12.0943 44.7911 11.777C45.0851 11.4597 45.4398 11.21 45.8551 11.028C46.2751 10.8413 46.7488 10.748 47.2761 10.748ZM47.3041 11.84C46.7581 11.84 46.3288 11.9963 46.0161 12.309C45.7035 12.6217 45.5051 13.0603 45.4211 13.625H48.9701C48.9701 13.373 48.9328 13.1397 48.8581 12.925C48.7881 12.7057 48.6831 12.5167 48.5431 12.358C48.4031 12.1947 48.2281 12.0687 48.0181 11.98C47.8128 11.8867 47.5748 11.84 47.3041 11.84ZM51.7246 20.373V10.86H52.6346C52.84 10.86 52.9706 10.9557 53.0266 11.147L53.1456 11.896C53.295 11.7233 53.4536 11.5647 53.6216 11.42C53.7896 11.2753 53.9693 11.1517 54.1606 11.049C54.3566 10.9463 54.5643 10.867 54.7836 10.811C55.0076 10.755 55.2456 10.727 55.4976 10.727C55.899 10.727 56.263 10.8087 56.5896 10.972C56.9163 11.1307 57.1963 11.364 57.4296 11.672C57.663 11.98 57.8426 12.3627 57.9686 12.82C58.0993 13.2727 58.1646 13.793 58.1646 14.381C58.1646 14.9083 58.0923 15.4007 57.9476 15.858C57.8076 16.3107 57.6046 16.705 57.3386 17.041C57.0726 17.3723 56.7506 17.6337 56.3726 17.825C55.9946 18.0117 55.5676 18.105 55.0916 18.105C54.6716 18.105 54.3146 18.0397 54.0206 17.909C53.7266 17.7737 53.463 17.587 53.2296 17.349V20.373H51.7246ZM54.9936 11.938C54.6063 11.938 54.275 12.022 53.9996 12.19C53.7243 12.3533 53.4676 12.589 53.2296 12.897V16.208C53.4396 16.4787 53.6683 16.67 53.9156 16.782C54.1676 16.8893 54.4453 16.943 54.7486 16.943C55.3366 16.943 55.794 16.7283 56.1206 16.299C56.452 15.8697 56.6176 15.2303 56.6176 14.381C56.6176 13.9423 56.5803 13.569 56.5056 13.261C56.431 12.9483 56.3236 12.694 56.1836 12.498C56.0436 12.302 55.8733 12.1597 55.6726 12.071C55.472 11.9823 55.2456 11.938 54.9936 11.938ZM62.616 10.748C63.0546 10.748 63.4606 10.8203 63.834 10.965C64.2073 11.105 64.5293 11.3127 64.8 11.588C65.0706 11.8633 65.2806 12.2017 65.43 12.603C65.584 12.9997 65.661 13.4523 65.661 13.961C65.661 14.1943 65.6353 14.3507 65.584 14.43C65.5326 14.5093 65.4393 14.549 65.304 14.549H60.719C60.7376 14.955 60.8006 15.3073 60.908 15.606C61.0153 15.9 61.1576 16.145 61.335 16.341C61.517 16.537 61.7316 16.684 61.979 16.782C62.231 16.8753 62.511 16.922 62.819 16.922C63.113 16.922 63.3673 16.8893 63.582 16.824C63.7966 16.754 63.9833 16.6793 64.142 16.6C64.3006 16.516 64.436 16.4413 64.548 16.376C64.66 16.306 64.7626 16.271 64.856 16.271C64.9773 16.271 65.0706 16.3177 65.136 16.411L65.563 16.964C65.3856 17.174 65.185 17.3513 64.961 17.496C64.737 17.6407 64.499 17.7597 64.247 17.853C63.995 17.9417 63.736 18.0047 63.47 18.042C63.204 18.084 62.945 18.105 62.693 18.105C62.1983 18.105 61.7386 18.0233 61.314 17.86C60.894 17.692 60.5276 17.447 60.215 17.125C59.907 16.803 59.6643 16.404 59.487 15.928C59.3143 15.452 59.228 14.9037 59.228 14.283C59.228 13.7883 59.305 13.3263 59.459 12.897C59.6176 12.4677 59.8416 12.0943 60.131 11.777C60.425 11.4597 60.7796 11.21 61.195 11.028C61.615 10.8413 62.0886 10.748 62.616 10.748ZM62.644 11.84C62.098 11.84 61.6686 11.9963 61.356 12.309C61.0433 12.6217 60.845 13.0603 60.761 13.625H64.31C64.31 13.373 64.2726 13.1397 64.198 12.925C64.128 12.7057 64.023 12.5167 63.883 12.358C63.743 12.1947 63.568 12.0687 63.358 11.98C63.1526 11.8867 62.9146 11.84 62.644 11.84ZM70.8025 14.5C70.8678 14.6213 70.9261 14.752 70.9775 14.892C71.0335 15.032 71.0871 15.172 71.1385 15.312C71.1898 15.172 71.2435 15.032 71.2995 14.892C71.3555 14.752 71.4161 14.6213 71.4815 14.5L73.3925 11.182C73.4625 11.042 73.5488 10.951 73.6515 10.909C73.7541 10.8623 73.8568 10.839 73.9595 10.839H75.1845V18H73.8335V13.681C73.8335 13.5317 73.8428 13.3637 73.8615 13.177C73.8801 12.9857 73.9035 12.8083 73.9315 12.645L71.6565 16.733C71.6098 16.817 71.5491 16.8847 71.4745 16.936C71.3998 16.9827 71.3158 17.006 71.2225 17.006H71.0615C70.9681 17.006 70.8841 16.9827 70.8095 16.936C70.7395 16.8847 70.6811 16.817 70.6345 16.733L68.3175 12.631C68.3455 12.7943 68.3688 12.974 68.3875 13.17C68.4108 13.3613 68.4225 13.5317 68.4225 13.681V18H67.0645V10.839H68.2965C68.3991 10.839 68.4995 10.8623 68.5975 10.909C68.7001 10.9557 68.7888 11.0467 68.8635 11.182L70.8025 14.5ZM80.0203 10.748C80.4589 10.748 80.8649 10.8203 81.2383 10.965C81.6116 11.105 81.9336 11.3127 82.2043 11.588C82.4749 11.8633 82.6849 12.2017 82.8343 12.603C82.9883 12.9997 83.0653 13.4523 83.0653 13.961C83.0653 14.1943 83.0396 14.3507 82.9883 14.43C82.9369 14.5093 82.8436 14.549 82.7083 14.549H78.1233C78.1419 14.955 78.2049 15.3073 78.3123 15.606C78.4196 15.9 78.5619 16.145 78.7393 16.341C78.9213 16.537 79.1359 16.684 79.3833 16.782C79.6353 16.8753 79.9153 16.922 80.2233 16.922C80.5173 16.922 80.7716 16.8893 80.9863 16.824C81.2009 16.754 81.3876 16.6793 81.5463 16.6C81.7049 16.516 81.8403 16.4413 81.9523 16.376C82.0643 16.306 82.1669 16.271 82.2603 16.271C82.3816 16.271 82.4749 16.3177 82.5403 16.411L82.9673 16.964C82.7899 17.174 82.5893 17.3513 82.3653 17.496C82.1413 17.6407 81.9033 17.7597 81.6513 17.853C81.3993 17.9417 81.1403 18.0047 80.8743 18.042C80.6083 18.084 80.3493 18.105 80.0973 18.105C79.6026 18.105 79.1429 18.0233 78.7183 17.86C78.2983 17.692 77.9319 17.447 77.6193 17.125C77.3113 16.803 77.0686 16.404 76.8913 15.928C76.7186 15.452 76.6323 14.9037 76.6323 14.283C76.6323 13.7883 76.7093 13.3263 76.8633 12.897C77.0219 12.4677 77.2459 12.0943 77.5353 11.777C77.8293 11.4597 78.1839 11.21 78.5993 11.028C79.0193 10.8413 79.4929 10.748 80.0203 10.748ZM80.0483 11.84C79.5023 11.84 79.0729 11.9963 78.7603 12.309C78.4476 12.6217 78.2493 13.0603 78.1653 13.625H81.7143C81.7143 13.373 81.6769 13.1397 81.6023 12.925C81.5323 12.7057 81.4273 12.5167 81.2873 12.358C81.1473 12.1947 80.9723 12.0687 80.7623 11.98C80.5569 11.8867 80.3189 11.84 80.0483 11.84ZM90.5588 10.86V18H89.0608V14.759H85.9738V18H84.4688V10.86H85.9738V13.625H89.0608V10.86H90.5588ZM98.4884 10.86V18H96.9904V14.759H93.9034V18H92.3984V10.86H93.9034V13.625H96.9904V10.86H98.4884ZM101.756 10.86V13.576H103.142C103.637 13.576 104.054 13.6367 104.395 13.758C104.736 13.8747 105.011 14.0333 105.221 14.234C105.431 14.4347 105.583 14.668 105.676 14.934C105.769 15.1953 105.816 15.4683 105.816 15.753C105.816 16.0843 105.758 16.3877 105.641 16.663C105.524 16.9337 105.352 17.1693 105.123 17.37C104.899 17.5707 104.621 17.727 104.29 17.839C103.963 17.9463 103.588 18 103.163 18H100.328V10.86H101.756ZM108.742 10.86V18H107.237V10.86H108.742ZM101.756 14.661V16.908H103.163C103.382 16.908 103.574 16.88 103.737 16.824C103.905 16.7633 104.043 16.684 104.15 16.586C104.262 16.4833 104.344 16.362 104.395 16.222C104.451 16.082 104.479 15.928 104.479 15.76C104.479 15.6107 104.453 15.4707 104.402 15.34C104.355 15.2047 104.278 15.088 104.171 14.99C104.068 14.8873 103.933 14.808 103.765 14.752C103.597 14.6913 103.392 14.661 103.149 14.661H101.756ZM112.234 14.325L109.861 10.86H111.303C111.42 10.86 111.504 10.8787 111.555 10.916C111.611 10.9487 111.66 11 111.702 11.07L113.312 13.597C113.349 13.4617 113.417 13.3123 113.515 13.149L114.88 11.098C114.973 10.9393 115.092 10.86 115.237 10.86H116.616L114.243 14.255L116.714 18H115.272C115.155 18 115.062 17.9697 114.992 17.909C114.927 17.8483 114.873 17.7807 114.831 17.706L113.186 15.074C113.144 15.2373 113.088 15.3727 113.018 15.48L111.527 17.706C111.476 17.7807 111.417 17.8483 111.352 17.909C111.291 17.9697 111.21 18 111.107 18H109.763L112.234 14.325Z" fill="#BFBFBF"/>
<circle opacity="0.53" cx="146.368" cy="14.2851" r="13.7851" stroke="#27AE60"/>
<circle opacity="0.53" cx="146.368" cy="14.2852" r="8.79084" fill="#27AE60"/>
</svg>
