<svg width="30" height="30" viewBox="0 0 30 30" fill="none" xmlns="http://www.w3.org/2000/svg">
<g clip-path="url(#clip0_0_109)">
<path d="M24.4287 10.4504H20.4726V14.9998H15.9232V18.9559H20.4726V23.5053H24.4287V18.9559H28.9781V14.9998H24.4287V10.4504Z" fill="#27AE60"/>
<path d="M13.9451 13.0219H18.4945V8.47242H26.4066V13.0219H28.701C29.5231 11.7032 30 10.2082 30 8.56935C30 4.0013 26.2976 0.297392 21.7305 0.297392C18.9555 0.297392 16.5 1.66427 15 3.76183C13.5 1.66421 11.0445 0.296799 8.26952 0.296799C3.7024 0.296799 0 3.99985 0 8.56796C0 10.5538 0.699692 12.3758 1.86587 13.8015L15 29.7033L18.4945 25.4723V20.934H13.9451V13.0219Z" fill="#27AE60"/>
</g>
<defs>
<clipPath id="clip0_0_109">
<rect width="30" height="30" fill="white"/>
</clipPath>
</defs>
</svg>
